<svg xmlns="http://www.w3.org/2000/svg" xmlns:xlink="http://www.w3.org/1999/xlink" viewBox="0 0 196.71 155.91"><defs><style>.cls-1{fill:none;}.cls-2{fill:#bfbfbf;}.cls-3{fill:#6b6b6b;}.cls-4{fill:#5a5a5a;}.cls-11,.cls-4,.cls-5,.cls-6{opacity:0.2;isolation:isolate;}.cls-10,.cls-5{fill:#2f2f2f;}.cls-6{fill:#fff;}.cls-7{fill:url(#radial-gradient);}.cls-8{fill:url(#radial-gradient-2);}.cls-9{fill:#434343;}.cls-12{fill:url(#radial-gradient-3);}.cls-13{fill:#4d4d4d;}.cls-14{fill:#666;stroke:#4d4d4d;stroke-miterlimit:10;stroke-width:4px;}</style><radialGradient id="radial-gradient" cx="28.28" cy="166.19" r="44.26" gradientTransform="matrix(0, 1, 1, 0, -106.36, 106.9)" gradientUnits="userSpaceOnUse"><stop offset="0" stop-color="#5a5a5a" stop-opacity="0.2"/><stop offset="1" stop-color="#5a5a5a" stop-opacity="0.02"/></radialGradient><radialGradient id="radial-gradient-2" cx="28.15" cy="165.91" r="44.62" gradientTransform="matrix(0, 1, 1, 0, -106.36, 106.9)" gradientUnits="userSpaceOnUse"><stop offset="0" stop-color="#2f2f2f" stop-opacity="0.2"/><stop offset="1" stop-color="#2f2f2f" stop-opacity="0.02"/></radialGradient><radialGradient id="radial-gradient-3" cx="-32" cy="267.57" r="134.35" gradientTransform="matrix(0, 1, 1, 0, -106.36, 106.9)" gradientUnits="userSpaceOnUse"><stop offset="0" stop-color="#fff" stop-opacity="0.1"/><stop offset="1" stop-color="#fff" stop-opacity="0"/></radialGradient></defs><title>자산 2</title><g id="레이어_2" data-name="레이어 2"><g id="Layer_4" data-name="Layer 4"><g id="_그룹_" data-name="&lt;그룹&gt;"><g id="_그룹_2" data-name="&lt;그룹&gt;"><path class="cls-1" d="M104.21,154.29l58-33.54V75.9l-64,37-64-37v44.85l58,33.54A12,12,0,0,0,104.21,154.29Z"/><polygon id="_패스_" data-name="&lt;패스&gt;" class="cls-2" points="59.94 135.05 78.33 124.42 34.21 98.9 34.21 120.75 59.44 135.34 59.94 135.05"/><path class="cls-1" d="M104.21,154.29l58-33.54V75.9l-64,37-64-37v44.85l58,33.54A12,12,0,0,0,104.21,154.29Z"/><polygon class="cls-3" points="98.21 112.92 78.33 124.42 34.21 98.9 34.21 75.9 98.21 112.92"/><path class="cls-1" d="M104.21,154.29l58-33.54V75.9l-64,37-64-37v44.85l58,33.54A12,12,0,0,0,104.21,154.29Z"/><polygon class="cls-4" points="35.21 120.75 35.21 99.48 34.21 98.9 34.21 120.75 59.44 135.34 59.94 135.05 35.21 120.75"/><path class="cls-1" d="M104.21,154.29l58-33.54V75.9l-64,37-64-37v44.85l58,33.54A12,12,0,0,0,104.21,154.29Z"/><polygon class="cls-5" points="35.21 76.48 34.21 75.9 34.21 98.9 35.21 99.48 35.21 76.48"/><path class="cls-1" d="M104.21,154.29l58-33.54V75.9l-64,37-64-37v44.85l58,33.54A12,12,0,0,0,104.21,154.29Z"/><polygon class="cls-6" points="34.21 75.9 34.21 76.48 97.71 113.21 98.21 112.92 34.21 75.9"/><path class="cls-1" d="M104.21,154.29l58-33.54V75.9l-64,37-64-37v44.85l58,33.54A12,12,0,0,0,104.21,154.29Z"/><polygon id="_패스_2" data-name="&lt;패스&gt;" class="cls-7" points="59.44 135.34 59.44 135.34 78.33 124.42 73.7 121.74 59.44 135.34"/><path class="cls-1" d="M104.21,154.29l58-33.54V75.9l-64,37-64-37v44.85l58,33.54A12,12,0,0,0,104.21,154.29Z"/><polygon id="_패스_3" data-name="&lt;패스&gt;" class="cls-8" points="73.7 121.74 78.33 124.42 98.21 112.92 88.71 107.43 73.7 121.74"/><path class="cls-1" d="M104.21,154.29l58-33.54V75.9l-64,37-64-37v44.85l58,33.54A12,12,0,0,0,104.21,154.29Z"/><g id="_그룹_3" data-name="&lt;그룹&gt;"><g id="_그룹_4" data-name="&lt;그룹&gt;"><polygon id="_패스_4" data-name="&lt;패스&gt;" class="cls-9" points="162.21 98.9 162.21 75.9 59.44 135.34 79.31 146.83 79.33 146.84 162.21 98.9"/></g></g><path class="cls-1" d="M104.21,154.29l58-33.54V75.9l-64,37-64-37v44.85l58,33.54A12,12,0,0,0,104.21,154.29Z"/><path class="cls-10" d="M92.21,154.29a12,12,0,0,0,12,0l58-33.54V98.9L79.33,146.84Z"/><path class="cls-1" d="M104.21,154.29l58-33.54V75.9l-64,37-64-37v44.85l58,33.54A12,12,0,0,0,104.21,154.29Z"/><polygon class="cls-11" points="79.33 146.84 79.82 146.55 60.44 135.34 162.21 76.48 162.21 75.9 59.44 135.34 79.31 146.83 79.33 146.84"/><path class="cls-1" d="M104.21,154.29l58-33.54V75.9l-64,37-64-37v44.85l58,33.54A12,12,0,0,0,104.21,154.29Z"/><path class="cls-6" d="M161.21,120.75l-58,33.54a12,12,0,0,1-5.5,1.58,12,12,0,0,0,6.5-1.58l58-33.54V75.9l-1,.58Z"/><path class="cls-1" d="M104.21,154.29l58-33.54V75.9l-64,37-64-37v44.85l58,33.54A12,12,0,0,0,104.21,154.29Z"/><path id="_패스_5" data-name="&lt;패스&gt;" class="cls-11" d="M79.33,146.84l12.88,7.45a12,12,0,0,0,6.5,1.58,12,12,0,0,1-5.5-1.58l-13.39-7.74Z"/><path class="cls-1" d="M104.21,154.29l58-33.54V75.9l-64,37-64-37v44.85l58,33.54A12,12,0,0,0,104.21,154.29Z"/><path id="_패스_6" data-name="&lt;패스&gt;" class="cls-12" d="M104.21,154.29l58-33.54V75.9l-64,37-64-37v44.85l58,33.54A12,12,0,0,0,104.21,154.29Z"/></g></g><path class="cls-13" d="M98,104.79l-96.48-52a1.61,1.61,0,0,1,.12-2.88L98.71,0l97.08,49a1.6,1.6,0,0,1,.07,2.87Z"/><line class="cls-14" x1="9.1" y1="52.95" x2="9.1" y2="135.34"/><path class="cls-13" d="M18.23,152.3s-6.83,1.59-9.13,1.59S0,152.3,0,152.3L2.26,114c.3-5.08,3.55-9.2,7.26-9.2h0c3.71,0,6.89,4.12,7.1,9.2Z"/></g></g></svg>