<?xml version="1.0" encoding="utf-8"?>
<!-- Generator: Adobe Illustrator 19.0.0, SVG Export Plug-In . SVG Version: 6.00 Build 0)  -->
<svg version="1.1" id="Layer_1" xmlns="http://www.w3.org/2000/svg" xmlns:xlink="http://www.w3.org/1999/xlink" x="0px" y="0px"
	 viewBox="85 48.8 460 47.2" style="enable-background:new 85 48.8 460 47.2;" xml:space="preserve">
<style type="text/css">
	.st0{fill:#FFFFFF;}
</style>
<g>
	<path class="st0" d="M96.7,88.6c-0.4,1.3-0.7,1.9-1.9,1.9c-1.2,0-5.4-0.1-6.1-0.4c-0.6-0.1-0.8-0.7-0.8-1.1c0-0.5,0.2-1.2,0.4-1.7
		l9.5-28.1c1.1-3.4,2-5.2,6.5-5.2h2c4.2,0,4.7,1.6,5.8,4.8l9.4,28.3c0.2,0.6,0.4,1.2,0.4,1.8c0,0.5-0.2,1-0.7,1.2
		c-0.7,0.4-4.3,0.4-6.1,0.4c-1.2,0-1.7-0.6-2-1.9l-2.2-6.8H99L96.7,88.6z M108.7,74.9c-2.4-8.3-3.2-10.9-3.8-13.7
		c-0.7,2.8-1.6,5.5-4,13.7H108.7z"/>
	<path class="st0" d="M153.7,90.4h-5.3c-0.8,0-1.6-0.6-1.6-1.7V61.4h-8.3c-1.1,0-1.6-0.4-1.6-1.3v-4.3c0-1.2,0.5-1.6,1.6-1.6h25
		c1.1,0,1.6,0.4,1.6,1.6v4.3c0,1-0.5,1.3-1.6,1.3h-8.3v27.2C155.4,89.9,154.7,90.4,153.7,90.4z"/>
	<path class="st0" d="M174.8,90.4c-3.7,0-5.8-1.6-5.8-5.8V60.2c0-4,2-5.9,5.8-5.9h15.6c1.1,0,1.6,0.4,1.6,1.6v4.3
		c0,1-0.5,1.3-1.6,1.3H179c-1.1,0-1.6,0.6-1.6,1.8v4.8h11.8c1.1,0,1.6,0.4,1.6,1.6V74c0,1-0.6,1.3-1.6,1.3h-11.9v6
		c0,1.3,0.5,1.9,1.9,1.9h12c1.1,0,1.6,0.4,1.6,1.6v4.3c0,1-0.5,1.3-1.6,1.3L174.8,90.4L174.8,90.4z"/>
	<path class="st0" d="M202.9,88.6c-0.4,1.3-0.7,1.9-1.9,1.9c-1.2,0-5.4-0.1-6.1-0.4c-0.6-0.1-0.8-0.7-0.8-1.1c0-0.5,0.2-1.2,0.4-1.7
		l9.5-28.1c1.1-3.4,2-5.2,6.5-5.2h2c4.2,0,4.7,1.6,5.8,4.8l9.4,28.3c0.2,0.6,0.4,1.2,0.4,1.8c0,0.5-0.2,1-0.7,1.2
		c-0.7,0.4-4.3,0.4-6.1,0.4c-1.2,0-1.7-0.6-2-1.9l-2.2-6.8h-11.6L202.9,88.6z M215,74.9c-2.4-8.3-3.2-10.9-3.8-13.7
		c-0.7,2.8-1.6,5.5-4,13.7H215z"/>
	<path class="st0" d="M238.6,90.4h-5.3c-0.8,0-1.4-0.7-1.4-1.7V60c0-2.9,0.7-5.9,5.9-5.9h1.8c4.3,0,4.7,1.4,6.4,6.1
		c2.5,7,3.5,9.7,4.3,12.7c0.8-3.1,1.7-5.4,4.1-12.7c1.3-4,2-6.1,6.8-6.1h2c4.9,0,5.2,2.4,5.2,5.9v28.4c0,1.3-0.6,1.9-1.7,1.9h-5.3
		c-0.8,0-1.4-0.5-1.4-1.8c0-17.5,0-21.5,0.1-26c-1.2,4.6-2,7.3-5.9,18.5c-0.8,2.4-1.6,3.4-3.6,3.4h-1c-1.9,0-2.8-1-3.5-3.2
		c-3.7-10.9-4.8-13.9-6.2-18.7c0.1,4.6,0.1,8.9,0.1,26.3C240.1,89.6,239.6,90.4,238.6,90.4z"/>
	<path class="st0" d="M309.5,56c0.4-1.3,1-1.8,2-1.8c1.4,0,4.8,0.1,5.9,0.4c0.6,0.1,0.8,0.7,0.8,1.1c0,0.5-0.2,1.2-0.4,1.7L308,86.6
		c-0.7,2-1.6,4-5.5,4h-2.3c-4,0-4.8-1.9-5.6-4.2L285,57.6c-0.2-0.6-0.4-1.2-0.4-1.8c0-0.4,0.2-1,0.7-1.2c0.7-0.2,4.6-0.4,6.2-0.4
		c1.2,0,1.6,0.5,2,1.8c6.6,21,7.1,22.9,7.9,25.7C302,79,302.6,77,309.5,56z"/>
	<path class="st0" d="M327.7,90.4c-3.7,0-5.8-1.6-5.8-5.8V60.2c0-4,2-5.9,5.8-5.9h15.6c1.1,0,1.6,0.4,1.6,1.6v4.3
		c0,1-0.5,1.3-1.6,1.3h-11.4c-1.1,0-1.6,0.6-1.6,1.8v4.8h11.8c1.1,0,1.6,0.4,1.6,1.6V74c0,1-0.6,1.3-1.6,1.3h-11.8v6
		c0,1.3,0.5,1.9,1.9,1.9h12c1.1,0,1.6,0.4,1.6,1.6v4.3c0,1-0.5,1.3-1.6,1.3L327.7,90.4L327.7,90.4z"/>
	<path class="st0" d="M358.3,90.4h-5c-0.8,0-1.4-0.5-1.4-1.7v-29c0-3.7,1.6-5.5,5.6-5.5h2.3c3.5,0,4.2,1.4,5.3,4
		c6.6,14.9,8,18.4,9.4,22c-0.2-4.9-0.2-9-0.2-23.6c0-1.2,0.6-2,1.7-2h4.7c1.1,0,1.6,0.8,1.6,1.9v29.9c0,4-2.3,4.7-4.8,4.7h-1.8
		c-3.5,0-4.7-1.1-6.2-4.6c-7.2-16.2-8-18.4-9.6-22.4c0.1,3.1,0.1,5.6,0.1,25C359.9,89.8,359.2,90.4,358.3,90.4z"/>
	<path class="st0" d="M403.3,90.4H398c-0.8,0-1.6-0.6-1.6-1.7V61.4h-8.3c-1.1,0-1.6-0.4-1.6-1.3v-4.3c0-1.2,0.5-1.6,1.6-1.6h25
		c1.1,0,1.6,0.4,1.6,1.6v4.3c0,1-0.5,1.3-1.6,1.3h-8.3v27.2C404.9,89.9,404.2,90.4,403.3,90.4z"/>
	<path class="st0" d="M448.3,76c0,5.2-0.4,8-1.6,10.2c-1.9,3.1-6.5,4.9-13.2,4.9c-5.5,0-10.8-1-12.7-5.3c-1.1-2.3-1.2-5.8-1.2-9.7
		V55.9c0-0.8,0.5-1.6,1.6-1.6h5.5c1,0,1.3,0.6,1.3,1.6v21.8c0,2.3,0.1,3.7,1,4.9c1,1.3,2.8,1.7,4.9,1.7c2,0,4.2-0.2,5.3-1.6
		c0.8-1.1,1.1-2.4,1.1-4.9v-22c0-0.8,0.5-1.6,1.6-1.6h5.2c1,0,1.3,0.6,1.3,1.6L448.3,76L448.3,76z"/>
	<path class="st0" d="M462.6,90.4h-5.2c-0.8,0-1.4-0.5-1.4-1.7V60.6c0-4.1,1.6-6.2,6.1-6.2h3.8c5.4,0,9,0.5,10.9,1.3
		c3.8,1.6,5.3,5.3,5.3,9.7c0,4.1-1.2,7.8-5.3,9.8l6.6,12c0.4,0.6,0.7,1.3,0.7,2c0,0.6-0.4,1-0.8,1.1c-0.5,0.1-5,0.2-6.2,0.2
		c-1,0-1.6-0.5-1.9-1.2l-6.1-12.5c-0.8,0-1.7,0-2.6,0h-1.9v11.9C464.3,89.9,463.6,90.4,462.6,90.4z M466.4,70.4
		c1.9,0,3.6-0.1,4.7-0.5c1.6-0.6,2.4-2,2.4-4.1c0-2.3-0.7-3.8-2.3-4.3c-1-0.4-2.3-0.4-3.8-0.4H466c-1.1,0-1.6,0.6-1.6,1.7v7.7
		L466.4,70.4L466.4,70.4z"/>
	<path class="st0" d="M494.9,90.4c-3.7,0-5.8-1.6-5.8-5.8V60.2c0-4,2-5.9,5.8-5.9h15.6c1.1,0,1.6,0.4,1.6,1.6v4.3
		c0,1-0.5,1.3-1.6,1.3h-11.4c-1.1,0-1.6,0.6-1.6,1.8v4.8h11.8c1.1,0,1.6,0.4,1.6,1.6V74c0,1-0.6,1.3-1.6,1.3h-11.8v6
		c0,1.3,0.5,1.9,1.9,1.9h12c1.1,0,1.6,0.4,1.6,1.6v4.3c0,1-0.5,1.3-1.6,1.3L494.9,90.4L494.9,90.4z"/>
	<path class="st0" d="M542.2,79.6c0,7-3.4,11.5-13.9,11.5c-3.6,0-7.9-0.4-11-1.4c-0.7-0.2-1.4-0.8-1.4-1.8c0-0.8,0.5-2.3,0.8-3.4
		c0.4-1,0.8-1.6,1.8-1.6c0.5,0,1.6,0.4,2,0.5c2.5,0.7,5.2,1,7.9,1c4.2,0,5.2-1.7,5.2-3.6c0-2.3-0.6-3.4-4.1-4.1l-4.2-1
		c-5.8-1.3-8.6-4.2-8.6-10.7c0-6.6,3.2-11.3,13.4-11.3c2.6,0,7,0.2,9.6,1.1c0.7,0.2,1.3,0.7,1.3,1.8c0,0.7-0.4,2.3-0.6,3.5
		c-0.2,0.8-0.7,1.4-1.4,1.4c-0.6,0-1.6-0.1-2-0.2c-2.9-0.5-5.6-0.7-7.4-0.7c-3.4,0-4.3,1.6-4.3,3.6c0,1.4,0.4,3,3.7,3.8l4.6,1.1
		C540.2,70.8,542.2,73,542.2,79.6z"/>
	<g>
		<path class="st0" d="M128.5,77c-2.2,0-4.4-1-4.4-4.7c0-3.6,2-4.8,4.7-4.8c2.4,0,4.6,0.8,4.6,4.8C133.2,75.8,131.4,77,128.5,77z"/>
	</g>
</g>
</svg>
